<svg class="main-content__icon" width="20" height="20" viewBox="0 0 20 20" xmlns="http://www.w3.org/2000/svg">
<path d="M13.07 0H6.93C1.32667 0 0 1.32667 0 6.93V13.07C0 18.6733 1.32667 20 6.93 20H13.07C18.6733 20 20 18.6733 20 13.07V6.93C20 1.32667 18.6592 0 13.07 0ZM16.1467 14.2692H14.6933C14.1433 14.2692 13.9733 13.8317 12.985 12.83C12.1242 11.9967 11.7433 11.8842 11.5317 11.8842C11.235 11.8842 11.15 11.9692 11.15 12.3783V13.6908C11.15 14.0442 11.0375 14.2558 10.1058 14.2558C8.5675 14.2558 6.85917 13.3242 5.66 11.5875C3.85333 9.0475 3.35833 7.14167 3.35833 6.74667C3.35833 6.535 3.44333 6.3375 3.8525 6.3375H5.30583C5.6725 6.3375 5.81417 6.50667 5.95583 6.90167C6.675 8.97667 7.875 10.7975 8.36917 10.7975C8.5525 10.7975 8.6375 10.7125 8.6375 10.2475V8.10083C8.58083 7.1125 8.05833 7.02833 8.05833 6.67583C8.05833 6.50583 8.2 6.33667 8.425 6.33667H10.7117C11.0225 6.33667 11.135 6.50583 11.135 6.8725V9.76667C11.135 10.0767 11.2767 10.19 11.3608 10.19C11.5442 10.19 11.7 10.0767 12.0383 9.73833C13.0833 8.56667 13.8308 6.76 13.8308 6.76C13.93 6.54833 14.0992 6.35083 14.4667 6.35083H15.92C16.3575 6.35083 16.4567 6.57583 16.3575 6.88667C16.1742 7.73417 14.3958 10.2458 14.3958 10.2458C14.2408 10.5 14.1842 10.6125 14.3958 10.8958C14.5508 11.1075 15.0592 11.545 15.3983 11.94C16.0192 12.6458 16.4983 13.2383 16.6258 13.6483C16.7675 14.0567 16.555 14.2683 16.1458 14.2683L16.1467 14.2692Z"/>
</svg>
